PathFileType	4	(X/Y/Z)	Kaydara	
DataRate	CameraRate	NumFrames	NumMarkers	Units	OrigDataRate	OrigDataStartFrame	OrigNumFrames	
60.00	60.00	5	74	mm	60.00	1052	200	
Frame#	Time	N_lasi			N_rasi			N_rpsi			N_lpsi			N_fneck			N_bneck			N_fhead			N_rhead			N_lhead			N_rshld			N_relbtop			N_relbext			N_relblow			N_rwrext			N_rwrtop			N_rwrlow			N_lshld			N_lelbext			N_lelbtop			N_lwrext			N_lwrtop			N_lwrlow			N_rtopleg			N_ltopleg			N_rkneefr			N_rkneebk			N_rkneeis			N_lkneefr			N_lknssbk			N_lkneeis			N_rankfr			N_rankis			N_rankbk			N_lankfr			N_lankbk			N_lankis			Z_lasi			Z_rasi			Z_rpsi			Z_lpsi			Z_fneck			Z_bneck			Z_fhead			Z_rhead			Z_lhead			Z_rshld			Z_relbtop			Z_relbext			Z_relblow			Z_rwrext			Z_rwrtop			Z_rwrlow			Z_lshld			Z_lelbext			Z_lelblow			Z_lelbtop			Z_lwrext			Z_lwrtop			Z_lwrlow			Z_rtopleg			Z_ltopleg			Z_rkneefr			Z_rkneebk			Z_rkneeis			Z_lkneefr			Z_lknssbk			Z_lkneeis			Z_rankfr			Z_rankis			Z_lankfr			Z_lankbk			Z_lankis			N_lelblow			Z_rankbk			
		X1	Y1	Z1	X2	Y2	Z2	X3	Y3	Z3	X4	Y4	Z4	X5	Y5	Z5	X6	Y6	Z6	X7	Y7	Z7	X8	Y8	Z8	X9	Y9	Z9	X10	Y10	Z10	X11	Y11	Z11	X12	Y12	Z12	X13	Y13	Z13	X14	Y14	Z14	X15	Y15	Z15	X16	Y16	Z16	X17	Y17	Z17	X18	Y18	Z18	X19	Y19	Z19	X20	Y20	Z20	X21	Y21	Z21	X22	Y22	Z22	X23	Y23	Z23	X24	Y24	Z24	X25	Y25	Z25	X26	Y26	Z26	X27	Y27	Z27	X28	Y28	Z28	X29	Y29	Z29	X30	Y30	Z30	X31	Y31	Z31	X32	Y32	Z32	X33	Y33	Z33	X34	Y34	Z34	X35	Y35	Z35	X36	Y36	Z36	X37	Y37	Z37	X38	Y38	Z38	X39	Y39	Z39	X40	Y40	Z40	X41	Y41	Z41	X42	Y42	Z42	X43	Y43	Z43	X44	Y44	Z44	X45	Y45	Z45	X46	Y46	Z46	X47	Y47	Z47	X48	Y48	Z48	X49	Y49	Z49	X50	Y50	Z50	X51	Y51	Z51	X52	Y52	Z52	X53	Y53	Z53	X54	Y54	Z54	X55	Y55	Z55	X56	Y56	Z56	X57	Y57	Z57	X58	Y58	Z58	X59	Y59	Z59	X60	Y60	Z60	X61	Y61	Z61	X62	Y62	Z62	X63	Y63	Z63	X64	Y64	Z64	X65	Y65	Z65	X66	Y66	Z66	X67	Y67	Z67	X68	Y68	Z68	X69	Y69	Z69	X70	Y70	Z70	X71	Y71	Z71	X72	Y72	Z72	X73	Y73	Z73	X74	Y74	Z74	

101	17.517	-583.98670	1039.36913	-825.80505	-655.47478	1035.70030	-1039.69017	-417.21256	1100.30151	-1102.24953	-373.84590	1093.09479	-863.58055	-650.76477	1494.74243	-955.40047	-533.68011	1580.65643	-984.44580	-755.60951	1683.41675	-882.59254	-653.10143	1708.91098	-1025.38109	-586.12900	1707.28378	-882.90947	-591.80038	1463.51288	-1190.97046	-483.10333	1179.12270	-1269.81171	-455.78339	1171.28357	-1190.29205	-543.92975	1168.82980	-1229.36409	-514.74209	920.90836	-1279.99992	-565.39375	924.95880	-1274.78676	-571.11835	921.99791	-1229.49760	-530.72735	1492.04620	-752.98561	-463.85864	1185.54802	-711.52870	-486.77670	1213.26363	-673.28430	-474.21043	958.88329	-635.49572	-528.02906	955.97687	-632.16412	-533.69106	945.90225	-680.68069	-539.66492	911.21750	-1172.62268	-466.90628	902.32498	-771.43494	-652.67517	480.26344	-1078.58948	-549.90429	515.76492	-1128.99811	-551.80157	488.07774	-1018.13103	-647.54913	469.01821	-849.17900	-556.90304	522.09976	-816.41045	-595.47543	519.60037	-936.07155	-588.69816	176.86293	-1106.62064	-527.99755	182.12381	-1063.91884	-533.53748	178.84211	-1145.26901	-375.10422	270.09188	-906.42899	-352.33852	325.13275	-977.49023	-407.61005	276.46376	-967.82845	-93.21352	975.00275	620.65567	105.90103	979.88640	753.93799	-27.87786	1029.99023	902.43019	-184.90234	1024.73740	790.77225	7.69167	1419.45511	647.11456	-20.74328	1500.08759	733.59215	64.29299	1539.76852	523.97118	98.14387	1603.34839	701.18332	-29.01473	1610.48279	670.22659	156.60697	1361.95206	872.33635	161.95614	1066.84761	949.98116	116.28336	1055.12260	895.58914	212.87220	1087.96165	885.63004	233.41177	823.21312	880.18272	266.97369	832.39777	850.79407	238.51425	844.00162	814.45824	-195.11364	1399.06586	612.51724	-220.20161	1074.61395	664.24576	-272.13892	1105.02953	589.66072	-290.98406	1088.19496	667.10007	-338.03925	880.09071	594.37450	-323.67687	884.89777	554.49795	-280.03378	873.43605	568.76801	109.45670	873.23914	860.59021	-183.56922	890.83359	660.73700	155.12887	412.71000	722.40242	155.92022	436.98833	810.13123	59.38369	422.39670	744.16451	-127.35633	394.39758	630.72716	-201.84996	447.27993	634.78851	-115.09775	443.66634	729.94316	143.56766	152.78560	753.42758	67.75367	146.58323	780.16266	-242.78929	234.21797	835.70618	-316.97781	250.17422	806.20064	-296.83886	281.10010	862.00729	-511.11198	1184.34357	-741.08536	123.60597	142.14513	826.99806 
102	17.533	-598.03329	1045.16541	-825.62462	-675.45425	1039.97917	-1036.54121	-437.99679	1104.05945	-1103.73863	-389.55746	1096.78093	-866.56815	-668.52364	1498.81943	-950.03265	-552.11014	1584.74518	-981.34239	-771.78940	1686.58066	-873.53691	-672.48001	1713.24432	-1018.48396	-602.32269	1710.82031	-877.58163	-615.21854	1469.93347	-1187.33345	-508.94665	1186.14410	-1271.74484	-479.41593	1177.57675	-1193.21640	-568.77388	1175.91072	-1229.61006	-544.32957	927.85683	-1279.76730	-594.47834	932.58377	-1272.75284	-599.71367	930.28763	-1228.14651	-543.61042	1495.46326	-750.49553	-472.01591	1190.29610	-708.33298	-494.10583	1218.72116	-670.06462	-474.80492	965.48492	-628.37879	-528.05058	961.97189	-621.37672	-537.11880	950.52681	-668.90671	-557.54669	913.68668	-1171.91895	-484.61945	909.12254	-770.03647	-655.91881	479.69349	-1079.01878	-553.60966	517.16492	-1129.18709	-556.64871	487.98889	-1018.19855	-679.57512	479.80591	-841.80931	-585.12978	528.21636	-810.58189	-624.87526	527.07371	-929.36218	-589.52339	177.22643	-1106.44035	-529.51221	183.06965	-1063.26859	-534.50340	179.56268	-1144.86443	-422.41661	262.06757	-902.03239	-396.37909	315.31542	-973.76823	-454.74236	270.66597	-963.51112	-84.37674	977.37251	614.62517	118.00747	980.50415	743.57353	-9.74510	1031.96335	895.46181	-170.69349	1025.27832	788.20877	19.16600	1421.84418	639.95930	-8.06878	1502.50748	726.90819	75.57548	1542.46552	516.57597	109.93081	1605.73944	693.86757	-16.93579	1612.99072	663.05405	172.73952	1363.56659	861.01089	180.14116	1068.62206	939.75868	132.73811	1056.57715	886.86005	229.33294	1089.41025	874.10492	248.82090	824.45641	869.59007	281.58802	833.47572	839.09088	251.71690	844.72672	803.96751	-184.73555	1402.02621	609.17698	-209.89273	1078.41904	658.96263	-265.21635	1108.87497	589.15493	-281.92080	1092.18895	667.08397	-331.36745	884.06616	595.65147	-318.53170	888.89450	555.27657	-275.04519	877.86072	564.57794	124.42696	873.99757	850.93925	-172.29235	893.80699	655.59959	158.77484	411.97735	717.54349	161.63675	437.06738	804.68864	63.62019	423.21857	740.93117	-111.95026	400.02964	607.69562	-185.07082	454.27441	614.69398	-93.19243	449.24240	706.17615	144.68329	152.59074	751.53961	68.99741	147.72592	779.03267	-222.53166	243.42339	817.44888	-297.17886	261.84153	791.27342	-273.34423	292.28252	845.64026	-520.09731	1188.38219	-737.91344	125.31960	143.04002	825.25154 
103	17.550	-613.43067	1049.66995	-823.52470	-694.88876	1042.84012	-1033.28575	-458.91872	1107.11220	-1104.12643	-405.21233	1099.87328	-868.80806	-685.99655	1501.92657	-944.42848	-570.28351	1587.94403	-978.42514	-787.36382	1688.98972	-864.02298	-691.76643	1716.69876	-1011.23520	-618.15376	1713.39813	-872.12173	-638.38654	1475.40985	-1183.42796	-534.67632	1192.45499	-1273.59299	-503.07011	1183.29796	-1196.33179	-593.48469	1182.17857	-1230.01602	-574.29718	934.21341	-1279.37599	-624.10900	939.81453	-1271.15028	-627.40578	937.65709	-1225.40207	-556.30413	1498.50006	-748.07526	-480.02216	1194.57848	-704.81636	-501.23238	1223.70972	-666.69701	-476.74660	971.54488	-621.13586	-529.41822	967.54318	-610.45433	-541.29780	955.20828	-657.63115	-574.89571	915.57396	-1170.93712	-501.42342	914.30588	-768.50014	-659.21494	479.27635	-1079.18396	-557.63653	518.58227	-1129.47166	-558.63884	490.03922	-1017.30644	-708.95470	489.49776	-835.08316	-611.20136	533.02418	-805.25642	-652.61124	533.02513	-923.01521	-590.46009	177.65522	-1106.25046	-530.53345	184.09397	-1063.13950	-535.81169	180.47367	-1144.53064	-471.10832	253.10244	-895.95116	-441.56532	303.16830	-968.83987	-503.56224	262.70178	-956.97235	-75.61867	980.31921	608.34076	129.44231	981.14937	733.23677	6.16008	1034.40453	888.27469	-157.58547	1026.95847	784.19083	30.33930	1424.54697	632.66731	4.04622	1504.95148	719.91226	86.11074	1545.23407	508.94802	121.23507	1608.54019	685.96214	-5.92884	1615.63919	656.00136	188.23122	1365.37308	849.45282	198.08853	1070.69565	928.89717	149.05333	1058.29727	877.40623	245.16415	1091.10519	861.82541	263.86871	825.69046	858.87543	295.63190	834.52194	827.56126	264.85041	845.63522	793.19077	-175.13479	1404.80820	606.07513	-202.80096	1081.78345	658.33656	-258.35291	1112.50656	588.51116	-273.59020	1095.88890	666.82762	-323.99380	887.60269	595.81127	-312.46124	892.78854	555.14885	-268.55076	881.77551	563.56316	137.54616	875.37682	842.02774	-161.63013	897.60567	649.49806	161.93975	411.82907	714.12987	166.55476	437.66068	801.01112	67.29793	424.55978	738.40881	-97.53807	406.73779	585.41771	-169.00225	461.88850	596.35033	-73.09632	453.62377	684.52133	145.71388	152.70422	750.22469	70.09500	148.79364	778.30414	-201.45203	252.26667	799.23325	-276.13934	272.41796	777.50740	-249.06471	302.21706	831.12579	-528.98315	1191.95847	-734.24789	126.99193	143.68507	823.91121 
104	17.567	-628.65189	1052.50702	-821.24413	-713.72993	1044.27094	-1029.81125	-479.69875	1109.61769	-1104.07646	-419.91035	1102.39655	-872.40234	-703.66341	1504.35669	-938.77075	-588.47698	1590.51102	-974.82796	-802.54646	1690.52444	-854.04175	-710.98068	1719.24179	-1003.77693	-633.73817	1715.02106	-866.82068	-661.25526	1479.73511	-1178.98781	-560.23621	1197.84767	-1275.39200	-526.44493	1187.84256	-1199.15405	-617.83867	1187.63588	-1230.00191	-604.06708	939.70284	-1277.97890	-653.69850	946.30127	-1268.90343	-655.61623	944.55315	-1223.09380	-568.65997	1500.56900	-745.42244	-488.10040	1198.35503	-700.74257	-507.96265	1228.07983	-663.41911	-479.28795	976.83578	-614.85798	-531.41140	972.72209	-601.15612	-546.33701	959.65622	-646.81519	-591.81282	917.04796	-1169.59190	-518.80428	918.58566	-766.28685	-662.72789	478.98815	-1079.33372	-561.83823	519.97326	-1129.74487	-562.21001	491.64494	-1017.57225	-737.21001	498.63525	-828.49312	-643.62328	538.92132	-793.16872	-679.09988	537.45174	-917.06902	-591.46507	178.28928	-1106.17485	-531.95236	185.28238	-1062.86926	-536.99287	181.55220	-1144.49936	-520.77896	242.92826	-888.75793	-487.82681	289.20797	-963.45505	-552.61913	254.21757	-950.31456	-66.37168	983.52631	601.98059	141.01402	982.60445	722.51228	19.47463	1037.16766	880.86830	-145.42024	1030.52010	778.73413	40.96378	1427.15790	625.11314	15.71481	1507.60315	712.59148	95.85855	1548.13660	501.00620	131.64421	1611.39175	677.90306	4.45530	1618.28979	648.49930	202.83007	1367.56744	837.99225	215.42807	1073.17154	916.91376	164.45528	1060.33630	867.66953	260.27941	1093.04756	848.52592	278.40801	827.47139	848.25272	309.51639	836.03233	815.77263	277.85971	846.85104	782.30484	-166.04511	1407.64587	603.22304	-193.94043	1085.38681	656.05026	-251.03237	1116.03981	587.98916	-265.35288	1099.54048	666.29822	-315.99871	891.19286	594.85008	-305.14921	896.54747	554.11430	-261.12791	885.75363	561.71494	148.66637	876.90285	833.87543	-151.58503	901.84036	642.64343	165.90492	411.91128	711.96785	170.71859	438.40027	798.60481	71.20275	425.75527	735.83717	-84.31602	413.61012	564.06784	-154.65628	469.19300	579.55917	-55.22684	459.05346	663.25821	147.18160	153.24850	749.30733	71.43171	150.26717	777.09511	-180.14622	258.47315	781.04637	-255.39759	280.32782	764.32823	-224.19039	308.24059	817.35252	-538.40946	1195.14168	-729.37813	127.87017	145.07379	822.78893 
105	17.583	-644.36241	1053.93486	-818.59276	-732.16301	1044.60373	-1026.07056	-499.60167	1111.39015	-1103.94569	-438.34793	1103.73505	-870.28282	-721.21658	1506.01074	-932.77565	-606.76510	1592.11517	-971.10901	-817.27852	1691.35620	-843.84628	-730.16289	1720.82306	-996.11885	-649.02786	1715.76874	-861.49834	-683.82240	1482.91992	-1174.11858	-585.70732	1202.27501	-1276.79306	-550.10406	1191.45126	-1201.63391	-642.28508	1192.14134	-1229.85641	-633.91407	944.38568	-1276.60072	-683.32672	952.05551	-1266.33812	-683.09074	950.39452	-1220.36331	-581.00338	1501.88309	-742.83134	-496.42883	1201.27541	-695.96397	-515.33333	1231.63246	-659.05685	-482.19475	981.10054	-608.74374	-534.03679	977.36717	-592.07699	-551.46774	963.57628	-636.48376	-609.57706	918.23875	-1167.51816	-535.18326	921.74454	-764.78546	-666.59195	478.82320	-1079.61136	-566.43822	521.55170	-1129.87915	-566.28338	493.04924	-1018.48228	-763.87276	506.29196	-822.51137	-668.72559	541.79764	-787.43309	-703.67188	540.11200	-911.00159	-592.82959	179.08327	-1106.35101	-532.84565	186.16241	-1063.74443	-538.24589	182.73073	-1144.48784	-571.67721	232.11637	-880.92064	-536.51321	273.46128	-956.06293	-605.13828	245.46909	-943.61206	-56.89339	987.33490	594.74808	151.60654	984.88625	712.85423	31.15713	1039.57993	873.36319	-134.77901	1035.00092	772.77367	51.20354	1429.97055	617.12193	26.93549	1510.48248	705.02602	104.95662	1551.15952	492.54230	141.96072	1614.34402	669.10507	14.59667	1620.95886	640.50354	216.86371	1370.15366	826.36459	231.99331	1075.98213	904.72084	179.25180	1062.79732	856.94450	274.39943	1095.38864	834.92615	292.75206	829.67278	837.39883	322.97295	837.85034	804.26643	290.71444	848.33023	771.15074	-157.40343	1410.69992	600.23193	-184.99311	1088.97751	653.64731	-243.46676	1119.64287	587.40360	-257.13789	1103.13248	665.90866	-307.59138	894.89433	593.12492	-297.02656	900.41832	552.29034	-252.78091	889.93561	559.62147	157.95735	878.45642	825.83321	-142.70749	906.48170	635.44060	169.42522	412.35798	709.80225	174.15358	439.42455	796.25053	74.37867	427.44972	732.93221	-71.78848	420.39604	544.23843	-141.32280	475.40596	563.98109	-38.70944	464.30752	643.06892	148.77222	154.25833	748.49686	72.86540	151.86854	775.94116	-157.73399	262.19078	762.60201	-232.83676	284.12577	751.29044	-198.87373	310.74028	803.43567	-547.69558	1197.42935	-724.18312	129.02349	146.40224	821.99577 
